# xmcd CD database file
#
# Track frame offsets:
#	150
#	18928
#	35973
#	57558
#	73068
#	92260
#	107023
#	128239
#	168395
#	186755
#	202055
#	223145
#	237885
#	255070
#	269833
#	293587
#
# Disc length: 4549 seconds
#
# Revision: 1
# Processed by: cddbd v1.5.2PL0 Copyright (c) Steve Scherf et al.
# Submitted via: CDex 1.51
#
DISCID=ef11c310
DTITLE=Los Lonery Boys - Los Lonery Boys
DYEAR=2003
DGENRE=Blues Rock
TTITLE0=Senorita
TTITLE1=Heaven
TTITLE2=Crazy Dream
TTITLE3=Dime Mi Amor
TTITLE4=Hollywood
TTITLE5=More Than Love
TTITLE6=Nobody Else
TTITLE7=Onda
TTITLE8=Real Emotions
TTITLE9=Tell Me Why
TTITLE10=Velvet Sky
TTITLE11=La Contestacion
TTITLE12=Heaver (en Espanol)
TTITLE13=More Than Love (en Espanol)
TTITLE14=I Walk The Line
TTITLE15=PC Video
EXTD=YEAR: 2003
EXTT0=
EXTT1=
EXTT2=
EXTT3=
EXTT4=
EXTT5=
EXTT6=
EXTT7=
EXTT8=
EXTT9=
EXTT10=
EXTT11=
EXTT12=
EXTT13=
EXTT14=
EXTT15=
PLAYORDER=
